REM DIRINDEX 1\3,1\4,1\5,1\6,1\2\7,1\2\8,1\2\9,1\10
REM DIRNAME folder01,folder02,folder03,folder04,folder05,folder06,folder07,folder08,folder09,folder10
TITLE ""
FILE "2-33 Level 5-815-826.mp3" MP3
  TRACK 01 AUDIO
    TITLE "0:"
    INDEX 01 00:00:00
  TRACK 02 AUDIO
    TITLE "7:cjc056_2785"
    INDEX 01 00:00:05
  TRACK 03 AUDIO
    TITLE "0:"
    INDEX 01 00:01:15
  TRACK 04 AUDIO
    TITLE "8:cjc056_2786"
    INDEX 01 00:01:24
  TRACK 05 AUDIO
    TITLE "0:"
    INDEX 01 00:02:28
  TRACK 06 AUDIO
    TITLE "9:cjc056_2787"
    INDEX 01 00:02:43
  TRACK 07 AUDIO
    TITLE "0:"
    INDEX 01 00:05:05
  TRACK 08 AUDIO
    TITLE "7:cjc056_2788"
    INDEX 01 00:05:56
  TRACK 09 AUDIO
    TITLE "0:"
    INDEX 01 00:06:73
  TRACK 10 AUDIO
    TITLE "8:cjc056_2789"
    INDEX 01 00:07:09
  TRACK 11 AUDIO
    TITLE "0:"
    INDEX 01 00:08:32
  TRACK 12 AUDIO
    TITLE "9:cjc056_2790"
    INDEX 01 00:08:46
  TRACK 13 AUDIO
    TITLE "0:"
    INDEX 01 00:11:33
  TRACK 14 AUDIO
    TITLE "7:cjc056_2791"
    INDEX 01 00:12:09
  TRACK 15 AUDIO
    TITLE "0:"
    INDEX 01 00:13:24
  TRACK 16 AUDIO
    TITLE "8:cjc056_2792"
    INDEX 01 00:13:33
  TRACK 17 AUDIO
    TITLE "0:"
    INDEX 01 00:15:21
  TRACK 18 AUDIO
    TITLE "9:cjc056_2793"
    INDEX 01 00:15:32
  TRACK 19 AUDIO
    TITLE "0:"
    INDEX 01 00:18:54
  TRACK 20 AUDIO
    TITLE "7:cjc056_2794"
    INDEX 01 00:19:30
  TRACK 21 AUDIO
    TITLE "0:"
    INDEX 01 00:20:37
  TRACK 22 AUDIO
    TITLE "8:cjc056_2795"
    INDEX 01 00:20:51
  TRACK 23 AUDIO
    TITLE "0:"
    INDEX 01 00:21:64
  TRACK 24 AUDIO
    TITLE "9:cjc056_2796"
    INDEX 01 00:22:03
  TRACK 25 AUDIO
    TITLE "0:"
    INDEX 01 00:24:63
  TRACK 26 AUDIO
    TITLE "7:cjc056_2797"
    INDEX 01 00:25:39
  TRACK 27 AUDIO
    TITLE "0:"
    INDEX 01 00:26:56
  TRACK 28 AUDIO
    TITLE "8:cjc056_2798"
    INDEX 01 00:26:67
  TRACK 29 AUDIO
    TITLE "0:"
    INDEX 01 00:27:65
  TRACK 30 AUDIO
    TITLE "9:cjc056_2799"
    INDEX 01 00:28:02
  TRACK 31 AUDIO
    TITLE "0:"
    INDEX 01 00:31:04
  TRACK 32 AUDIO
    TITLE "7:cjc056_2800"
    INDEX 01 00:31:55
  TRACK 33 AUDIO
    TITLE "0:"
    INDEX 01 00:32:74
  TRACK 34 AUDIO
    TITLE "8:cjc056_2801"
    INDEX 01 00:33:09
  TRACK 35 AUDIO
    TITLE "0:"
    INDEX 01 00:34:06
  TRACK 36 AUDIO
    TITLE "9:cjc056_2802"
    INDEX 01 00:34:18
  TRACK 37 AUDIO
    TITLE "0:"
    INDEX 01 00:37:44
  TRACK 38 AUDIO
    TITLE "7:cjc056_2803"
    INDEX 01 00:38:18
  TRACK 39 AUDIO
    TITLE "0:"
    INDEX 01 00:39:29
  TRACK 40 AUDIO
    TITLE "8:cjc056_2804"
    INDEX 01 00:39:39
  TRACK 41 AUDIO
    TITLE "0:"
    INDEX 01 00:41:18
  TRACK 42 AUDIO
    TITLE "9:cjc056_2805"
    INDEX 01 00:41:30
  TRACK 43 AUDIO
    TITLE "0:"
    INDEX 01 00:43:44
  TRACK 44 AUDIO
    TITLE "7:cjc056_2806"
    INDEX 01 00:44:20
  TRACK 45 AUDIO
    TITLE "0:"
    INDEX 01 00:45:41
  TRACK 46 AUDIO
    TITLE "8:cjc056_2807"
    INDEX 01 00:45:51
  TRACK 47 AUDIO
    TITLE "0:"
    INDEX 01 00:47:36
  TRACK 48 AUDIO
    TITLE "9:cjc056_2808"
    INDEX 01 00:47:52
  TRACK 49 AUDIO
    TITLE "0:"
    INDEX 01 00:50:54
  TRACK 50 AUDIO
    TITLE "7:cjc056_2809"
    INDEX 01 00:51:30
  TRACK 51 AUDIO
    TITLE "0:"
    INDEX 01 00:52:39
  TRACK 52 AUDIO
    TITLE "8:cjc056_2810"
    INDEX 01 00:52:53
  TRACK 53 AUDIO
    TITLE "0:"
    INDEX 01 00:55:38
  TRACK 54 AUDIO
    TITLE "9:cjc056_2811"
    INDEX 01 00:55:50
  TRACK 55 AUDIO
    TITLE "0:"
    INDEX 01 00:58:09
  TRACK 56 AUDIO
    TITLE "7:cjc056_2812"
    INDEX 01 00:58:58
  TRACK 57 AUDIO
    TITLE "0:"
    INDEX 01 00:59:65
  TRACK 58 AUDIO
    TITLE "8:cjc056_2813"
    INDEX 01 01:00:04
  TRACK 59 AUDIO
    TITLE "0:"
    INDEX 01 01:01:25
  TRACK 60 AUDIO
    TITLE "9:cjc056_2814"
    INDEX 01 01:01:38
  TRACK 61 AUDIO
    TITLE "0:"
    INDEX 01 01:04:66
  TRACK 62 AUDIO
    TITLE "7:cjc056_2815"
    INDEX 01 01:05:40
  TRACK 63 AUDIO
    TITLE "0:"
    INDEX 01 01:06:55
  TRACK 64 AUDIO
    TITLE "8:cjc056_2816"
    INDEX 01 01:06:69
  TRACK 65 AUDIO
    TITLE "0:"
    INDEX 01 01:08:11
  TRACK 66 AUDIO
    TITLE "9:cjc056_2817"
    INDEX 01 01:08:25
  TRACK 67 AUDIO
    TITLE "0:"
    INDEX 01 01:11:17
  TRACK 68 AUDIO
    TITLE "7:cjc056_2818"
    INDEX 01 01:11:68
  TRACK 69 AUDIO
    TITLE "0:"
    INDEX 01 01:13:06
  TRACK 70 AUDIO
    TITLE "8:cjc056_2819"
    INDEX 01 01:13:18
  TRACK 71 AUDIO
    TITLE "0:"
    INDEX 01 01:14:37
  TRACK 72 AUDIO
    TITLE "9:cjc056_2820"
    INDEX 01 01:14:51
  TRACK 73 AUDIO
    TITLE "0:"
    INDEX 01 01:17:35
